<svg width="96" height="131" viewBox="0 0 96 131" fill="none" xmlns="http://www.w3.org/2000/svg">
<g filter="url(#filter0_d_1406_5385)">
<mask id="path-1-inside-1_1406_5385" fill="white">
<path fill-rule="evenodd" clip-rule="evenodd" d="M23.4805 15.5456C18.9497 18.882 10.7769 20.1774 6.65137 20.463V105.609H6.72793C7.81695 108.612 13.0269 114.618 25.1546 114.618C40.1192 114.618 48.0798 121.665 48.2822 121.846H48.2902C48.4863 121.67 56.4473 114.617 71.418 114.617C83.5457 114.617 88.7557 108.612 89.8447 105.609H89.8566V8.02212L89.8565 8.0009V20.5029C86.0182 20.3218 77.1429 19.0769 72.3474 15.5456C66.3531 11.1315 62.0281 9.17586 58.5378 9.17586C54.9969 11.0011 47.915 12.6625 47.915 4.70587V3.89722H47.9129V4.70587C47.9129 12.6625 40.831 11.0011 37.2901 9.17586C33.7998 9.17586 29.4748 11.1315 23.4805 15.5456ZM47.7264 10.4702H47.7269V11.1763C47.7269 18.1203 53.9987 16.6704 57.1346 15.0774C60.2257 15.0774 64.056 16.7842 69.3646 20.6365C73.6109 23.718 81.4696 24.8046 84.8695 24.9628V99.2366H84.8586C83.8942 101.857 79.2802 107.099 68.5397 107.099C55.2438 107.099 48.1911 113.289 48.0561 113.408H48.0509C47.9165 113.289 40.8637 107.099 27.5672 107.099C16.8267 107.099 12.2127 101.857 11.2483 99.2366H11.1818V24.9285C14.8345 24.6798 22.0752 23.5494 26.0888 20.6368C31.3974 16.7844 35.2277 15.0777 38.3188 15.0777C41.4547 16.6706 47.7264 18.1206 47.7264 11.1766V10.4702Z"/>
</mask>
<path fill-rule="evenodd" clip-rule="evenodd" d="M23.4805 15.5456C18.9497 18.882 10.7769 20.1774 6.65137 20.463V105.609H6.72793C7.81695 108.612 13.0269 114.618 25.1546 114.618C40.1192 114.618 48.0798 121.665 48.2822 121.846H48.2902C48.4863 121.67 56.4473 114.617 71.418 114.617C83.5457 114.617 88.7557 108.612 89.8447 105.609H89.8566V8.02212L89.8565 8.0009V20.5029C86.0182 20.3218 77.1429 19.0769 72.3474 15.5456C66.3531 11.1315 62.0281 9.17586 58.5378 9.17586C54.9969 11.0011 47.915 12.6625 47.915 4.70587V3.89722H47.9129V4.70587C47.9129 12.6625 40.831 11.0011 37.2901 9.17586C33.7998 9.17586 29.4748 11.1315 23.4805 15.5456ZM47.7264 10.4702H47.7269V11.1763C47.7269 18.1203 53.9987 16.6704 57.1346 15.0774C60.2257 15.0774 64.056 16.7842 69.3646 20.6365C73.6109 23.718 81.4696 24.8046 84.8695 24.9628V99.2366H84.8586C83.8942 101.857 79.2802 107.099 68.5397 107.099C55.2438 107.099 48.1911 113.289 48.0561 113.408H48.0509C47.9165 113.289 40.8637 107.099 27.5672 107.099C16.8267 107.099 12.2127 101.857 11.2483 99.2366H11.1818V24.9285C14.8345 24.6798 22.0752 23.5494 26.0888 20.6368C31.3974 16.7844 35.2277 15.0777 38.3188 15.0777C41.4547 16.6706 47.7264 18.1206 47.7264 11.1766V10.4702Z" fill="url(#paint0_linear_1406_5385)"/>
<path d="M6.65137 20.463L6.61068 19.8751C6.30177 19.8965 6.0621 20.1533 6.0621 20.463H6.65137ZM23.4805 15.5456L23.131 15.0711L23.4805 15.5456ZM6.65137 105.609H6.0621C6.0621 105.935 6.32592 106.199 6.65137 106.199V105.609ZM6.72793 105.609L7.2819 105.408C7.19735 105.175 6.97591 105.02 6.72793 105.02V105.609ZM48.2822 121.846L47.8889 122.285C47.997 122.382 48.137 122.435 48.2822 122.435V121.846ZM48.2902 121.846V122.435C48.4353 122.435 48.5754 122.382 48.6835 122.285L48.2902 121.846ZM89.8447 105.609V105.02C89.5967 105.02 89.3753 105.175 89.2907 105.408L89.8447 105.609ZM89.8566 105.609V106.198C90.182 106.198 90.4458 105.934 90.4458 105.609H89.8566ZM89.8566 8.02212H90.4458V8.02063L89.8566 8.02212ZM89.8565 8.0009L90.4458 7.99942C90.4449 7.67426 90.1809 7.41122 89.8558 7.41163C89.5306 7.41204 89.2672 7.67574 89.2672 8.0009H89.8565ZM89.8565 20.5029L89.8287 21.0915C89.9897 21.0991 90.1467 21.0404 90.2632 20.9292C90.3798 20.818 90.4458 20.664 90.4458 20.5029H89.8565ZM72.3474 15.5456L71.998 16.0201L72.3474 15.5456ZM58.5378 9.17586V8.58659C58.4439 8.58659 58.3513 8.60904 58.2678 8.65208L58.5378 9.17586ZM47.915 3.89722H48.5043C48.5043 3.57177 48.2405 3.30795 47.915 3.30795V3.89722ZM47.9129 3.89722V3.30795C47.5874 3.30795 47.3236 3.57177 47.3236 3.89722H47.9129ZM37.2901 9.17586L37.5601 8.65208C37.4766 8.60904 37.384 8.58659 37.2901 8.58659V9.17586ZM47.7269 10.4702H48.3162C48.3162 10.1448 48.0524 9.88097 47.7269 9.88097V10.4702ZM47.7264 10.4702V9.88097C47.401 9.88097 47.1372 10.1448 47.1372 10.4702H47.7264ZM57.1346 15.0774V14.4882C57.0418 14.4882 56.9504 14.51 56.8677 14.5521L57.1346 15.0774ZM69.3646 20.6365L69.0185 21.1135L69.3646 20.6365ZM84.8695 24.9628H85.4588C85.4588 24.648 85.2114 24.3888 84.8969 24.3742L84.8695 24.9628ZM84.8695 99.2366V99.8259C85.195 99.8259 85.4588 99.5621 85.4588 99.2366H84.8695ZM84.8586 99.2366V98.6474C84.6117 98.6474 84.3909 98.8013 84.3056 99.0331L84.8586 99.2366ZM48.0561 113.408V113.998C48.2001 113.998 48.339 113.945 48.4468 113.85L48.0561 113.408ZM48.0509 113.408L47.6601 113.85C47.7679 113.945 47.9069 113.998 48.0509 113.998V113.408ZM11.2483 99.2366L11.8013 99.0331C11.716 98.8013 11.4952 98.6473 11.2483 98.6473V99.2366ZM11.1818 99.2366H10.5926C10.5926 99.5621 10.8564 99.8259 11.1818 99.8259V99.2366ZM11.1818 24.9285L11.1418 24.3406C10.8326 24.3617 10.5926 24.6186 10.5926 24.9285H11.1818ZM26.0888 20.6368L25.7427 20.1599L26.0888 20.6368ZM38.3188 15.0777L38.5856 14.5523C38.503 14.5103 38.4115 14.4884 38.3188 14.4884V15.0777ZM6.69205 21.0508C8.78358 20.9061 11.8926 20.5063 15.056 19.7202C18.2084 18.9369 21.4724 17.7561 23.8299 16.0201L23.131 15.0711C20.9578 16.6715 17.8699 17.8066 14.7718 18.5765C11.6847 19.3436 8.64464 19.7343 6.61068 19.8751L6.69205 21.0508ZM7.24064 105.609V20.463H6.0621V105.609H7.24064ZM6.72793 105.02H6.65137V106.199H6.72793V105.02ZM25.1546 114.028C13.2298 114.028 8.27196 108.138 7.2819 105.408L6.17397 105.81C7.36194 109.086 12.824 115.207 25.1546 115.207V114.028ZM48.6754 121.407C48.4092 121.169 40.3144 114.028 25.1546 114.028V115.207C39.9239 115.207 47.7503 122.161 47.8889 122.285L48.6754 121.407ZM48.2902 121.257H48.2822V122.435H48.2902V121.257ZM71.418 114.028C56.2519 114.028 48.1567 121.174 47.8968 121.407L48.6835 122.285C48.8158 122.166 56.6426 115.207 71.418 115.207V114.028ZM89.2907 105.408C88.3006 108.138 83.3428 114.028 71.418 114.028V115.207C83.7486 115.207 89.2107 109.086 90.3986 105.81L89.2907 105.408ZM89.8566 105.02H89.8447V106.198H89.8566V105.02ZM89.2673 8.02212V105.609H90.4458V8.02212H89.2673ZM89.2672 8.00238L89.2673 8.0236L90.4458 8.02063L90.4458 7.99942L89.2672 8.00238ZM90.4458 20.5029V8.0009H89.2672V20.5029H90.4458ZM71.998 16.0201C74.492 17.8566 78.0023 19.0729 81.3261 19.8542C84.6619 20.6384 87.8763 20.9994 89.8287 21.0915L89.8843 19.9142C87.9985 19.8253 84.8561 19.4733 81.5958 18.7069C78.3235 17.9377 74.9983 16.7659 72.6969 15.0711L71.998 16.0201ZM58.5378 9.76513C61.8252 9.76513 66.0169 11.6157 71.998 16.0201L72.6969 15.0711C66.6893 10.6472 62.2311 8.58659 58.5378 8.58659V9.76513ZM47.3258 4.70587C47.3258 6.77709 47.7864 8.30696 48.6099 9.37705C49.44 10.4557 50.5849 10.9973 51.8062 11.191C54.2028 11.5712 56.9952 10.634 58.8078 9.69964L58.2678 8.65208C56.5395 9.54298 54.0205 10.349 51.9909 10.0271C50.9992 9.86974 50.1523 9.44887 49.5439 8.65829C48.9289 7.85912 48.5043 6.61294 48.5043 4.70587H47.3258ZM47.3258 3.89722V4.70587H48.5043V3.89722H47.3258ZM47.9129 4.48649H47.915V3.30795H47.9129V4.48649ZM48.5021 4.70587V3.89722H47.3236V4.70587H48.5021ZM37.0201 9.69964C38.8327 10.634 41.6251 11.5712 44.0217 11.191C45.243 10.9973 46.3879 10.4557 47.218 9.37705C48.0415 8.30696 48.5021 6.77709 48.5021 4.70587H47.3236C47.3236 6.61294 46.899 7.85912 46.284 8.65829C45.6756 9.44887 44.8287 9.86974 43.837 10.0271C41.8074 10.349 39.2884 9.54298 37.5601 8.65208L37.0201 9.69964ZM23.8299 16.0201C29.811 11.6157 34.0027 9.76513 37.2901 9.76513V8.58659C33.5968 8.58659 29.1385 10.6472 23.131 15.0711L23.8299 16.0201ZM47.7269 9.88097H47.7264V11.0595H47.7269V9.88097ZM48.3162 11.1763V10.4702H47.1376V11.1763H48.3162ZM56.8677 14.5521C55.342 15.3271 53.125 16.0242 51.3458 15.746C50.4784 15.6104 49.7454 15.2491 49.2203 14.5767C48.6893 13.8968 48.3162 12.8285 48.3162 11.1763H47.1376C47.1376 12.9961 47.5484 14.3506 48.2914 15.3021C49.0403 16.261 50.0712 16.7396 51.1638 16.9104C53.3045 17.2451 55.7913 16.4207 57.4014 15.6028L56.8677 14.5521ZM69.7107 20.1596C64.3881 16.2971 60.4258 14.4882 57.1346 14.4882V15.6667C60.0255 15.6667 63.7238 17.2712 69.0185 21.1135L69.7107 20.1596ZM84.8969 24.3742C83.2297 24.2966 80.4506 23.9898 77.5675 23.3218C74.6722 22.6511 71.7379 21.6307 69.7107 20.1596L69.0185 21.1135C71.2377 22.7239 74.3558 23.7875 77.3014 24.47C80.2592 25.1552 83.1093 25.4708 84.8421 25.5515L84.8969 24.3742ZM85.4588 99.2366V24.9628H84.2802V99.2366H85.4588ZM84.8586 99.8259H84.8695V98.6474H84.8586V99.8259ZM68.5397 107.688C79.4777 107.688 84.346 102.336 85.4116 99.4401L84.3056 99.0331C83.4423 101.379 79.0826 106.509 68.5397 106.509V107.688ZM48.4468 113.85C48.5174 113.787 55.4367 107.688 68.5397 107.688V106.509C55.0508 106.509 47.8647 112.791 47.6654 112.967L48.4468 113.85ZM48.0509 113.998H48.0561V112.819H48.0509V113.998ZM27.5672 107.688C40.6707 107.688 47.5901 113.788 47.6601 113.85L48.4416 112.967C48.2428 112.791 41.0567 106.509 27.5672 106.509V107.688ZM10.6953 99.4401C11.7609 102.336 16.6292 107.688 27.5672 107.688V106.509C17.0243 106.509 12.6646 101.379 11.8013 99.0331L10.6953 99.4401ZM11.1818 99.8259H11.2483V98.6473H11.1818V99.8259ZM10.5926 24.9285V99.2366H11.7711V24.9285H10.5926ZM25.7427 20.1599C23.8278 21.5494 21.1017 22.538 18.3598 23.2092C15.6291 23.8778 12.9398 24.2182 11.1418 24.3406L11.2219 25.5164C13.0766 25.3901 15.8339 25.0409 18.6401 24.354C21.4351 23.6697 24.3361 22.6367 26.4349 21.1137L25.7427 20.1599ZM38.3188 14.4884C35.0275 14.4884 31.0652 16.2974 25.7427 20.1599L26.4349 21.1137C31.7296 17.2714 35.4278 15.667 38.3188 15.667V14.4884ZM47.1372 11.1766C47.1372 12.8288 46.764 13.897 46.233 14.5769C45.708 15.2493 44.9749 15.6107 44.1075 15.7463C42.3284 16.0244 40.1114 15.3273 38.5856 14.5523L38.0519 15.6031C39.6621 16.421 42.1489 17.2453 44.2896 16.9107C45.3821 16.7399 46.413 16.2613 47.1619 15.3023C47.9049 14.3509 48.3157 12.9963 48.3157 11.1766H47.1372ZM47.1372 10.4702V11.1766H48.3157V10.4702H47.1372Z" fill="url(#paint1_linear_1406_5385)" mask="url(#path-1-inside-1_1406_5385)"/>
</g>
<g filter="url(#filter1_d_1406_5385)">
<mask id="path-3-inside-2_1406_5385" fill="white">
<path fill-rule="evenodd" clip-rule="evenodd" d="M9.24121 22.8823C13.1153 22.6195 20.7911 21.4269 25.0462 18.3551C30.6756 14.2912 34.7372 12.4908 38.0151 12.4908C41.3404 14.1712 47.991 15.7007 47.991 8.37551V7.63049H47.9922V8.37577C47.9922 15.701 54.6428 14.1715 57.9682 12.4911C61.246 12.4911 65.3077 14.2915 70.937 18.3554C75.4404 21.6065 83.7754 22.7526 87.38 22.9192V11.6993C87.3802 11.718 87.3803 11.7367 87.3803 11.7554V101.271H87.3686C86.3459 104.036 81.4531 109.565 70.0638 109.565C56.0029 109.565 48.5266 116.06 48.3442 116.22H48.3399C48.1592 116.061 40.6827 109.565 26.6202 109.565C15.2309 109.565 10.3381 104.036 9.31542 101.271H9.24121V22.8823Z"/>
</mask>
<path d="M9.24121 22.8823L9.20133 22.2944C8.89208 22.3153 8.65194 22.5723 8.65194 22.8823H9.24121ZM25.0462 18.3551L24.7013 17.8773L25.0462 18.3551ZM38.0151 12.4908L38.2808 11.9649C38.1984 11.9232 38.1074 11.9015 38.0151 11.9015V12.4908ZM47.991 7.63049V7.04122C47.6656 7.04122 47.4018 7.30505 47.4018 7.63049H47.991ZM47.9922 7.63049H48.5815C48.5815 7.30505 48.3176 7.04122 47.9922 7.04122V7.63049ZM57.9682 12.4911V11.9018C57.8758 11.9018 57.7848 11.9235 57.7024 11.9651L57.9682 12.4911ZM70.937 18.3554L71.2819 17.8776L70.937 18.3554ZM87.38 22.9192L87.3527 23.5079C87.5136 23.5153 87.6705 23.4566 87.7869 23.3454C87.9034 23.2342 87.9692 23.0802 87.9692 22.9192H87.38ZM87.38 11.6993L87.9692 11.6913C87.9648 11.3675 87.6999 11.1078 87.376 11.11C87.0521 11.1122 86.7907 11.3754 86.7907 11.6993H87.38ZM87.3803 101.271V101.86C87.7058 101.86 87.9696 101.597 87.9696 101.271H87.3803ZM87.3686 101.271V100.682C87.122 100.682 86.9015 100.835 86.8159 101.067L87.3686 101.271ZM48.3442 116.22V116.809C48.4873 116.809 48.6256 116.757 48.7332 116.663L48.3442 116.22ZM48.3399 116.22L47.9509 116.663C48.0584 116.757 48.1967 116.809 48.3399 116.809V116.22ZM9.31542 101.271L9.86809 101.067C9.78253 100.835 9.56202 100.682 9.31542 100.682V101.271ZM9.24121 101.271H8.65194C8.65194 101.597 8.91577 101.86 9.24121 101.86V101.271ZM9.28109 23.4702C11.2464 23.3369 14.1677 22.9687 17.1403 22.2446C20.1018 21.5232 23.1718 20.4351 25.3912 18.8329L24.7013 17.8773C22.6656 19.3469 19.7701 20.391 16.8614 21.0996C13.9638 21.8054 11.1102 22.1649 9.20133 22.2944L9.28109 23.4702ZM25.3912 18.8329C31.0063 14.7792 34.9364 13.0801 38.0151 13.0801V11.9015C34.5381 11.9015 30.3448 13.8032 24.7013 17.8773L25.3912 18.8329ZM37.7493 13.0167C39.4542 13.8783 42.0825 14.7437 44.3406 14.3925C45.4916 14.2135 46.5757 13.7125 47.3634 12.709C48.1455 11.7127 48.5803 10.2912 48.5803 8.37551H47.4018C47.4018 10.1224 47.0052 11.2567 46.4364 11.9813C45.8732 12.6987 45.0868 13.0838 44.1595 13.228C42.261 13.5233 39.9012 12.7837 38.2808 11.9649L37.7493 13.0167ZM48.5803 8.37551V7.63049H47.4018V8.37551H48.5803ZM47.9922 7.04122H47.991V8.21976H47.9922V7.04122ZM48.5815 8.37577V7.63049H47.4029V8.37577H48.5815ZM57.7024 11.9651C56.082 12.784 53.7222 13.5235 51.8237 13.2283C50.8964 13.084 50.11 12.699 49.5468 11.9816C48.978 11.257 48.5815 10.1227 48.5815 8.37577H47.4029C47.4029 10.2915 47.8377 11.713 48.6198 12.7093C49.4075 13.7128 50.4916 14.2138 51.6426 14.3928C53.9008 14.744 56.529 13.8786 58.2339 13.017L57.7024 11.9651ZM71.2819 17.8776C65.6384 13.8035 61.4452 11.9018 57.9682 11.9018V13.0803C61.0468 13.0803 64.9769 14.7795 70.5921 18.8331L71.2819 17.8776ZM87.4072 22.3306C85.6376 22.2488 82.688 21.9249 79.6279 21.2197C76.5556 20.5117 73.4377 19.4339 71.2819 17.8776L70.5921 18.8331C72.9397 20.5279 76.241 21.6487 79.3632 22.3682C82.4976 23.0905 85.5178 23.423 87.3527 23.5079L87.4072 22.3306ZM86.7907 11.6993V22.9192H87.9692V11.6993H86.7907ZM87.9696 11.7554C87.9696 11.7341 87.9695 11.7127 87.9692 11.6913L86.7907 11.7072C86.791 11.7232 86.7911 11.7392 86.7911 11.7554H87.9696ZM87.9696 101.271V11.7554H86.7911V101.271H87.9696ZM87.3686 101.86H87.3803V100.682H87.3686V101.86ZM70.0638 110.154C81.6488 110.154 86.7966 104.516 87.9213 101.476L86.8159 101.067C85.8952 103.556 81.2574 108.975 70.0638 108.975V110.154ZM48.7332 116.663C48.8508 116.559 56.1943 110.154 70.0638 110.154V108.975C55.8116 108.975 48.2023 115.56 47.9551 115.777L48.7332 116.663ZM48.3399 116.809H48.3442V115.631H48.3399V116.809ZM26.6202 110.154C40.4913 110.154 47.8349 116.561 47.9509 116.663L48.729 115.777C48.4834 115.562 40.8741 108.975 26.6202 108.975V110.154ZM8.76276 101.476C9.88743 104.516 15.0352 110.154 26.6202 110.154V108.975C15.4266 108.975 10.7888 103.556 9.86809 101.067L8.76276 101.476ZM9.24121 101.86H9.31542V100.682H9.24121V101.86ZM8.65194 22.8823V101.271H9.83048V22.8823H8.65194Z" fill="#FFD257" mask="url(#path-3-inside-2_1406_5385)"/>
</g>
<path d="M1.16211 26.072L4.54524 22.6887V83.041L1.16211 86.4241V95.4825" stroke="url(#paint2_linear_1406_5385)" stroke-width="0.589271" stroke-linecap="round"/>
<path d="M2.03516 81.8212V71.6449" stroke="url(#paint3_linear_1406_5385)" stroke-width="0.589271" stroke-linecap="round"/>
<path d="M4.25266 86.6515V96.1929L1.35156 99.094V105.605C2.87736 109.645 10.8398 118.644 21.7738 118.644C35.2456 118.644 48.0919 123.919 48.0919 128.768" stroke="url(#paint4_linear_1406_5385)" stroke-width="0.589271" stroke-linecap="round" stroke-linejoin="round"/>
<path d="M3.95215 99.595V105.824C5.8594 109.373 12.247 116.67 22.9808 116.67C34.497 116.67 42.5928 118.535 48.1337 124.076" stroke="url(#paint5_linear_1406_5385)" stroke-width="0.589271" stroke-linecap="round" stroke-linejoin="round"/>
<path d="M95.2832 26.0722L91.9001 22.689V83.0412L95.2832 86.4243V95.4828" stroke="url(#paint6_linear_1406_5385)" stroke-width="0.589271" stroke-linecap="round"/>
<path d="M94.4121 81.8212V71.6449" stroke="url(#paint7_linear_1406_5385)" stroke-width="0.589271" stroke-linecap="round"/>
<path d="M92.1926 86.6517V96.1931L95.0938 99.0942V105.606C93.5679 109.646 85.6055 118.644 74.6715 118.644C61.1998 118.644 48.3534 123.92 48.3534 128.769" stroke="url(#paint8_linear_1406_5385)" stroke-width="0.589271" stroke-linecap="round" stroke-linejoin="round"/>
<path d="M92.4883 99.595V105.824C90.581 109.373 84.1935 116.67 73.4596 116.67C61.9434 116.67 53.8476 118.535 48.3068 124.076" stroke="url(#paint9_linear_1406_5385)" stroke-width="0.589271" stroke-linecap="round" stroke-linejoin="round"/>
<defs>
<filter id="filter0_d_1406_5385" x="0.758656" y="0.361589" width="94.9905" height="129.734" filterUnits="userSpaceOnUse" color-interpolation-filters="sRGB">
<feFlood flood-opacity="0" result="BackgroundImageFix"/>
<feColorMatrix in="SourceAlpha" type="matrix" values="0 0 0 0 0 0 0 0 0 0 0 0 0 0 0 0 0 0 127 0" result="hardAlpha"/>
<feOffset dy="2.35708"/>
<feGaussianBlur stdDeviation="2.94636"/>
<feComposite in2="hardAlpha" operator="out"/>
<feColorMatrix type="matrix" values="0 0 0 0 0 0 0 0 0 0 0 0 0 0 0 0 0 0 0.25 0"/>
<feBlend mode="normal" in2="BackgroundImageFix" result="effect1_dropShadow_1406_5385"/>
<feBlend mode="normal" in="SourceGraphic" in2="effect1_dropShadow_1406_5385" result="shape"/>
</filter>
<filter id="filter1_d_1406_5385" x="3.3485" y="4.09487" width="89.9241" height="120.375" filterUnits="userSpaceOnUse" color-interpolation-filters="sRGB">
<feFlood flood-opacity="0" result="BackgroundImageFix"/>
<feColorMatrix in="SourceAlpha" type="matrix" values="0 0 0 0 0 0 0 0 0 0 0 0 0 0 0 0 0 0 127 0" result="hardAlpha"/>
<feOffset dy="2.35708"/>
<feGaussianBlur stdDeviation="2.94636"/>
<feComposite in2="hardAlpha" operator="out"/>
<feColorMatrix type="matrix" values="0 0 0 0 0 0 0 0 0 0 0 0 0 0 0 0 0 0 0.25 0"/>
<feBlend mode="normal" in2="BackgroundImageFix" result="effect1_dropShadow_1406_5385"/>
<feBlend mode="normal" in="SourceGraphic" in2="effect1_dropShadow_1406_5385" result="shape"/>
</filter>
<linearGradient id="paint0_linear_1406_5385" x1="48.254" y1="3.89722" x2="48.254" y2="121.846" gradientUnits="userSpaceOnUse">
<stop/>
<stop offset="1" stop-color="#252525"/>
</linearGradient>
<linearGradient id="paint1_linear_1406_5385" x1="48.254" y1="3.89722" x2="48.254" y2="121.846" gradientUnits="userSpaceOnUse">
<stop stop-color="#FFF171"/>
<stop offset="1" stop-color="#D19A0C"/>
</linearGradient>
<linearGradient id="paint2_linear_1406_5385" x1="2.85367" y1="22.6887" x2="2.85367" y2="95.4825" gradientUnits="userSpaceOnUse">
<stop stop-color="#FFF171"/>
<stop offset="1" stop-color="#D19A0C"/>
</linearGradient>
<linearGradient id="paint3_linear_1406_5385" x1="2.53516" y1="71.6449" x2="2.53516" y2="81.8212" gradientUnits="userSpaceOnUse">
<stop stop-color="#FFF171"/>
<stop offset="1" stop-color="#D19A0C"/>
</linearGradient>
<linearGradient id="paint4_linear_1406_5385" x1="24.7218" y1="86.6515" x2="24.7218" y2="128.768" gradientUnits="userSpaceOnUse">
<stop stop-color="#FFF171"/>
<stop offset="1" stop-color="#D19A0C"/>
</linearGradient>
<linearGradient id="paint5_linear_1406_5385" x1="26.0429" y1="99.595" x2="26.0429" y2="124.076" gradientUnits="userSpaceOnUse">
<stop stop-color="#FFF171"/>
<stop offset="1" stop-color="#D19A0C"/>
</linearGradient>
<linearGradient id="paint6_linear_1406_5385" x1="93.5916" y1="22.689" x2="93.5916" y2="95.4828" gradientUnits="userSpaceOnUse">
<stop stop-color="#FFF171"/>
<stop offset="1" stop-color="#D19A0C"/>
</linearGradient>
<linearGradient id="paint7_linear_1406_5385" x1="93.9121" y1="71.6449" x2="93.9121" y2="81.8212" gradientUnits="userSpaceOnUse">
<stop stop-color="#FFF171"/>
<stop offset="1" stop-color="#D19A0C"/>
</linearGradient>
<linearGradient id="paint8_linear_1406_5385" x1="71.7236" y1="86.6517" x2="71.7236" y2="128.769" gradientUnits="userSpaceOnUse">
<stop stop-color="#FFF171"/>
<stop offset="1" stop-color="#D19A0C"/>
</linearGradient>
<linearGradient id="paint9_linear_1406_5385" x1="70.3975" y1="99.595" x2="70.3975" y2="124.076" gradientUnits="userSpaceOnUse">
<stop stop-color="#FFF171"/>
<stop offset="1" stop-color="#D19A0C"/>
</linearGradient>
</defs>
</svg>
